<svg width="70" height="33" viewBox="0 0 70 33" fill="none" xmlns="http://www.w3.org/2000/svg">
<path d="M2.64358 0H0V19.0926H2.64358V12.0094C2.64358 10.8111 2.94163 9.86583 3.53774 9.20012C4.13384 8.53441 4.95024 8.18824 5.96102 8.18824C6.82926 8.18824 7.55495 8.50778 8.13809 9.12024C8.72123 9.74601 9.01929 10.5315 9.01929 11.4769V19.1059H11.6758V11.4769C11.6758 9.71938 11.1964 8.3347 10.2374 7.29619C9.27846 6.25768 8.02146 5.73843 6.49233 5.73843C6.05173 5.73843 5.61114 5.79168 5.1835 5.91151C4.7429 6.03134 4.39301 6.16448 4.10792 6.31094C3.82283 6.45739 3.5507 6.61717 3.30448 6.80356C3.05826 6.98996 2.8898 7.12311 2.81205 7.20299C2.73429 7.28288 2.6695 7.33613 2.64358 7.37608V0Z" fill="#F0145A"/>
<path d="M17.5856 0H14.8604V19.0767H17.5856V0Z" fill="white"/>
<path d="M33.6598 13.4896L33.796 12.127C33.796 10.3011 33.1965 8.77493 31.9701 7.54857C30.7438 6.32221 29.2176 5.72266 27.3917 5.72266C25.5658 5.72266 23.9851 6.37672 22.677 7.68483C21.3689 8.99295 20.7148 10.5463 20.7148 12.3995C20.7148 14.3072 21.3962 15.9423 22.7315 17.305C24.0669 18.6676 25.6748 19.3489 27.528 19.3489C28.2365 19.3489 28.8906 19.2399 29.5446 19.0491C30.1987 18.8311 30.7438 18.6131 31.1253 18.3951C31.5341 18.1498 31.9429 17.8773 32.2971 17.5775C32.6514 17.2777 32.8967 17.0597 33.0057 16.9234C33.1147 16.7872 33.1965 16.7054 33.251 16.6236L31.4796 14.8522L31.0708 15.37C30.7983 15.6971 30.335 16.0241 29.6809 16.3784C28.9996 16.7327 28.291 16.8962 27.528 16.8962C26.4651 16.8962 25.5658 16.5691 24.8027 15.8878C24.0396 15.2065 23.5764 14.4162 23.4401 13.4896H33.6598ZM27.3917 8.03912C28.4 8.03912 29.2176 8.33889 29.8989 8.9112C30.553 9.51075 30.9618 10.2466 31.1253 11.1732H23.5491C23.7944 10.2466 24.2304 9.51075 24.9117 8.9112C25.5658 8.33889 26.4106 8.03912 27.3917 8.03912Z" fill="white"/>
<path d="M46.3695 18.286C46.3695 19.4852 46.0153 20.4662 45.2794 21.2293C44.5709 21.9651 43.6715 22.3467 42.5542 22.3467C42.0637 22.3467 41.5731 22.2649 41.1098 22.1286C40.6465 21.9924 40.2922 21.8289 39.9925 21.6381C39.6927 21.4473 39.4202 21.2566 39.1476 21.0113C38.9024 20.766 38.7389 20.6025 38.6571 20.5207C38.5753 20.439 38.5208 20.3572 38.4663 20.3027L36.6949 22.0741L36.9129 22.3467C37.0492 22.5374 37.2945 22.7827 37.6215 23.0552C37.9485 23.3005 38.3301 23.573 38.7661 23.8455C39.2021 24.0908 39.7472 24.3088 40.4285 24.4996C41.1098 24.6904 41.8184 24.7994 42.5542 24.7994C44.4074 24.7994 45.9335 24.1726 47.2144 22.919C48.468 21.6381 49.0948 20.112 49.0948 18.2588V5.99518H46.3695V7.3578L45.9062 6.94902C45.6065 6.67649 45.1432 6.40397 44.4891 6.13144C43.8351 5.85892 43.1265 5.72266 42.4179 5.72266C40.7555 5.72266 39.3384 6.34946 38.112 7.63033C36.8857 8.9112 36.2861 10.4373 36.2861 12.2632C36.2861 14.0892 36.8857 15.6153 38.112 16.8962C39.3384 18.177 40.7555 18.8038 42.4179 18.8038C42.8812 18.8038 43.3173 18.7493 43.7806 18.6403C44.2166 18.5041 44.5709 18.3678 44.8707 18.2315C45.1704 18.0953 45.443 17.9318 45.6882 17.741C45.9335 17.5502 46.1243 17.414 46.1788 17.3595L46.3695 17.1687V18.286ZM39.0114 12.2632C39.0114 11.1186 39.3657 10.1648 40.1015 9.37449C40.8373 8.58417 41.7094 8.17538 42.6905 8.17538C43.6715 8.17538 44.5436 8.58417 45.2794 9.37449C45.988 10.1648 46.3695 11.1186 46.3695 12.2632C46.3695 13.4079 45.988 14.3617 45.2794 15.152C44.5436 15.9423 43.6715 16.3511 42.6905 16.3511C41.7094 16.3511 40.8373 15.9423 40.1015 15.152C39.3657 14.3617 39.0114 13.4079 39.0114 12.2632Z" fill="white"/>
<path d="M63.3195 19.0764V10.6281C63.3195 9.23823 62.8017 8.06637 61.7934 7.13979C60.7851 6.18595 59.4769 5.72266 57.869 5.72266C57.2422 5.72266 56.6154 5.80441 56.0159 5.96793C55.4163 6.1587 54.9258 6.34946 54.5715 6.56748C54.2172 6.7855 53.8629 7.03078 53.5359 7.33055C53.2089 7.60308 53.0181 7.79384 52.9091 7.90285C52.8273 8.01186 52.7456 8.09362 52.6911 8.17538L54.4625 9.94679L54.8168 9.4835C55.0348 9.18372 55.4163 8.9112 55.9886 8.61142C56.5609 8.31164 57.1877 8.17538 57.869 8.17538C58.6594 8.17538 59.3134 8.42065 59.8312 8.88394C60.349 9.34724 60.5943 9.94679 60.5943 10.6281L55.8251 11.4457C54.6533 11.6364 53.6994 12.0997 53.0454 12.8356C52.364 13.5714 52.0098 14.4707 52.0098 15.5335C52.0098 16.5419 52.4458 17.414 53.3179 18.177C54.2172 18.9674 55.3073 19.3489 56.6427 19.3489C57.106 19.3489 57.542 19.2944 57.9781 19.1581C58.4413 19.0491 58.7956 18.9129 59.0954 18.7766C59.3952 18.6403 59.6677 18.4768 59.913 18.286C60.1582 18.0953 60.3218 17.959 60.4308 17.9045C60.5125 17.8228 60.567 17.741 60.5943 17.7137V19.0764H63.3195ZM57.0515 16.8962C56.3429 16.8962 55.7706 16.7327 55.3618 16.4056C54.9258 16.0786 54.735 15.6971 54.735 15.261C54.735 14.7977 54.8713 14.3889 55.1711 14.0892C55.4708 13.7894 55.8796 13.5714 56.3702 13.4896L60.5943 12.8083V13.0808C60.5943 14.3072 60.2945 15.2338 59.6677 15.9151C59.0409 16.5691 58.1688 16.8962 57.0515 16.8962Z" fill="white"/>
<path d="M69.3337 0H66.6084V19.0767H69.3337V0Z" fill="white"/>
<path d="M0 28.3308H0.852878V31.3211H2.70078V32.016H0V28.3308Z" fill="white"/>
<path d="M8.26752 31.2263H6.5565L6.23009 32.016H5.35615L6.99873 28.3308H7.84108L9.48893 32.016H8.59393L8.26752 31.2263ZM7.99902 30.5788L7.41464 29.1678L6.83026 30.5788H7.99902Z" fill="white"/>
<path d="M17.8731 28.3308L16.6675 32.016H15.7515L14.9407 29.5206L14.1036 32.016H13.1928L11.982 28.3308H12.8664L13.6982 30.921L14.5669 28.3308H15.3566L16.199 30.942L17.0571 28.3308H17.8731Z" fill="white"/>
<path d="M26.9457 32.0792C26.5702 32.0792 26.2297 31.9985 25.9244 31.837C25.6225 31.6721 25.3838 31.4457 25.2084 31.1579C25.0364 30.8666 24.9504 30.5384 24.9504 30.1734C24.9504 29.8084 25.0364 29.482 25.2084 29.1942C25.3838 28.9028 25.6225 28.6765 25.9244 28.515C26.2297 28.3501 26.5719 28.2676 26.951 28.2676C27.2704 28.2676 27.5582 28.3237 27.8144 28.436C28.0741 28.5484 28.2917 28.7098 28.4672 28.9204L27.9197 29.4258C27.6705 29.138 27.3616 28.9941 26.9931 28.9941C26.7649 28.9941 26.5614 29.045 26.3824 29.1468C26.2034 29.2451 26.063 29.3837 25.9612 29.5627C25.8629 29.7417 25.8138 29.9453 25.8138 30.1734C25.8138 30.4015 25.8629 30.6051 25.9612 30.7841C26.063 30.9631 26.2034 31.1035 26.3824 31.2053C26.5614 31.3035 26.7649 31.3527 26.9931 31.3527C27.3616 31.3527 27.6705 31.207 27.9197 30.9157L28.4672 31.4211C28.2917 31.6352 28.0741 31.7984 27.8144 31.9107C27.5547 32.0231 27.2651 32.0792 26.9457 32.0792Z" fill="white"/>
<path d="M33.3831 32.0792C33.0005 32.0792 32.6548 31.9967 32.3459 31.8318C32.0406 31.6668 31.8002 31.4404 31.6247 31.1526C31.4527 30.8613 31.3667 30.5349 31.3667 30.1734C31.3667 29.8119 31.4527 29.4872 31.6247 29.1994C31.8002 28.9081 32.0406 28.68 32.3459 28.515C32.6548 28.3501 33.0005 28.2676 33.3831 28.2676C33.7657 28.2676 34.1096 28.3501 34.415 28.515C34.7203 28.68 34.9607 28.9081 35.1362 29.1994C35.3117 29.4872 35.3995 29.8119 35.3995 30.1734C35.3995 30.5349 35.3117 30.8613 35.1362 31.1526C34.9607 31.4404 34.7203 31.6668 34.415 31.8318C34.1096 31.9967 33.7657 32.0792 33.3831 32.0792ZM33.3831 31.3527C33.6007 31.3527 33.7972 31.3035 33.9727 31.2053C34.1482 31.1035 34.2851 30.9631 34.3834 30.7841C34.4852 30.6051 34.5361 30.4015 34.5361 30.1734C34.5361 29.9453 34.4852 29.7417 34.3834 29.5627C34.2851 29.3837 34.1482 29.2451 33.9727 29.1468C33.7972 29.045 33.6007 28.9941 33.3831 28.9941C33.1655 28.9941 32.9689 29.045 32.7934 29.1468C32.618 29.2451 32.4793 29.3837 32.3775 29.5627C32.2793 29.7417 32.2301 29.9453 32.2301 30.1734C32.2301 30.4015 32.2793 30.6051 32.3775 30.7841C32.4793 30.9631 32.618 31.1035 32.7934 31.2053C32.9689 31.3035 33.1655 31.3527 33.3831 31.3527Z" fill="white"/>
<path d="M42.0264 32.016L42.0211 29.8049L40.9366 31.6264H40.5523L39.473 29.8522V32.016H38.6728V28.3308H39.3782L40.7576 30.6209L42.1159 28.3308H42.8161L42.8266 32.016H42.0264Z" fill="white"/>
<path d="M47.9285 28.3308C48.2549 28.3308 48.5374 28.3852 48.7761 28.494C49.0183 28.6028 49.2043 28.7572 49.3342 28.9573C49.464 29.1573 49.529 29.3942 49.529 29.668C49.529 29.9382 49.464 30.1751 49.3342 30.3787C49.2043 30.5788 49.0183 30.7332 48.7761 30.842C48.5374 30.9473 48.2549 30.9999 47.9285 30.9999H47.1862V32.016H46.3333V28.3308H47.9285ZM47.8811 30.305C48.1373 30.305 48.3321 30.2506 48.4655 30.1418C48.5989 30.0295 48.6656 29.8716 48.6656 29.668C48.6656 29.4609 48.5989 29.303 48.4655 29.1942C48.3321 29.0818 48.1373 29.0257 47.8811 29.0257H47.1862V30.305H47.8811Z" fill="white"/>
<path d="M55.0121 31.2263H53.3011L52.9747 32.016H52.1008L53.7433 28.3308H54.5857L56.2335 32.016H55.3385L55.0121 31.2263ZM54.7436 30.5788L54.1592 29.1678L53.5749 30.5788H54.7436Z" fill="white"/>
<path d="M62.6281 28.3308V32.016H61.9279L60.0906 29.7785V32.016H59.2482V28.3308H59.9537L61.7858 30.5682V28.3308H62.6281Z" fill="white"/>
<path d="M67.9013 30.7104V32.016H67.0485V30.6999L65.6217 28.3308H66.5273L67.5117 29.9681L68.4963 28.3308H69.3333L67.9013 30.7104Z" fill="white"/>
</svg>
