<svg width="42" height="42" viewBox="0 0 42 42" fill="none" xmlns="http://www.w3.org/2000/svg">
<rect width="42" height="42" rx="12" fill="#F5F5FA"/>
<g clip-path="url(#clip0_22724_8595)">
<path d="M31.6755 9H10.3245C9.5925 9 9 9.5925 9 10.3245V31.6755C9 32.4075 9.5925 33 10.3245 33H21.819V23.706H18.69V20.085H21.819V17.4105C21.819 14.3115 23.712 12.6255 26.478 12.6255C27.8025 12.6255 28.941 12.7215 29.2725 12.7665V16.0065H27.3525C25.8525 16.0065 25.56 16.7265 25.56 17.7765V20.0865H29.145L28.68 23.7165H25.56V33H31.6755C32.4075 33 33 32.4075 33 31.6755V10.3245C33 9.5925 32.4075 9 31.6755 9Z" fill="#435695"/>
</g>
<defs>
<clipPath id="clip0_22724_8595">
<rect width="24" height="24" fill="white" transform="translate(9 9)"/>
</clipPath>
</defs>
</svg>
