<svg width="42" height="42" viewBox="0 0 42 42" fill="none" xmlns="http://www.w3.org/2000/svg">
<rect width="42" height="42" rx="12" fill="#F5F5FA"/>
<g clip-path="url(#clip0_22724_8601)">
<path d="M12.6 18H16.2V29.4H12.6V18ZM14.4 12.3C15.6 12.3 16.5 13.2 16.5 14.4C16.35 15.45 15.45 16.5 14.4 16.5C13.2 16.5 12.3 15.45 12.3 14.4C12.3 13.2 13.2 12.3 14.4 12.3ZM18.3 18H21.75V19.5C22.5 18.3 23.85 17.7 25.2 17.7C28.8 17.7 29.4 20.1 29.4 23.1V29.4H25.8V23.85C25.8 22.5 25.8 20.85 24 20.85C22.2 20.85 21.9 22.35 21.9 23.85V29.55H18.3V18ZM28.5 9H13.5C10.5 9 9 10.5 9 13.5V28.5C9 31.5 10.5 33 13.5 33H28.5C31.5 33 33 31.5 33 28.5V13.5C33 10.5 31.5 9 28.5 9Z" fill="#1178B3"/>
</g>
<defs>
<clipPath id="clip0_22724_8601">
<rect width="24" height="24" fill="white" transform="translate(9 9)"/>
</clipPath>
</defs>
</svg>
